Land_normalized_Motion_pl02
version=1
nRows=8
nColumns=43
inDegrees=yes
endheader
time		pelvis_tilt		pelvis_list		pelvis_rotation		pelvis_tx		pelvis_ty		pelvis_tz		hip_flexion_r		hip_adduction_r		hip_rotation_r		knee_angle_r		ankle_angle_r		subtalar_angle_r		mtp_angle_r		hip_flexion_l		hip_adduction_l		hip_rotation_l		knee_angle_l		ankle_angle_l		subtalar_angle_l		mtp_angle_l		lumbar_extension		lumbar_bending		lumbar_rotation		neck_flexion		neck_lateral_bending		neck_rotation		arm_flex_r		arm_add_r		arm_rot_r		elbow_flex_r		pro_sup_r		wrist_flex_r		wrist_dev_r		hand_finger_flex_r		arm_flex_l		arm_add_l		arm_rot_l		elbow_flex_l		pro_sup_l		wrist_flex_l		wrist_dev_l		hand_finger_flex_l		
1.092500		-3.571321		14.902164		94.321006		0.002329		0.695350		0.477894		44.122839		-2.024879		-2.114714		-91.880785		21.752673		-7.162288		11.037725		42.613250		3.664941		-3.354774		-86.527938		21.347204		-23.863342		9.758610		-51.524296		-3.919214		-4.511701		-10.624122		5.027882		-3.437315		-18.236951		-31.866490		-12.429082		56.640705		95.006788		-19.474113		-2.869450		35.134612		-17.818990		-34.924891		-17.231015		62.237353		121.277514		-19.035233		7.600861		80.870938		
1.095227		-3.682187		15.099741		94.372522		0.002289		0.690086		0.477441		44.957773		-2.008565		-1.909658		-93.499163		21.264163		-7.145615		11.231565		43.294321		3.877514		-3.277597		-87.987040		21.226442		-23.883044		9.731845		-52.497926		-3.957747		-4.530370		-9.569795		5.183887		-3.626143		-15.599474		-32.147932		-11.993100		56.801122		95.358819		-19.562721		-2.787650		35.140475		-15.296298		-34.944470		-17.060068		62.577334		121.495408		-19.031230		7.700763		80.818070		
1.097955		-3.974739		14.956830		94.409955		0.002409		0.684198		0.476828		46.265585		-2.055710		-1.477592		-95.212240		20.271576		-7.565533		12.149452		44.329999		4.187628		-3.453051		-89.397433		20.850522		-24.294700		9.612792		-53.061540		-4.207934		-4.741168		-8.762112		5.333556		-3.948350		-12.922459		-32.348224		-11.346379		56.980919		96.472943		-20.108873		-2.622770		35.281003		-12.955023		-34.903414		-17.081346		63.096633		122.369446		-18.905503		8.440738		80.985548		
1.100682		-4.114862		15.133683		94.471325		0.002436		0.679233		0.476209		47.081181		-2.047133		-1.243291		-96.721565		19.600053		-7.558725		12.622580		44.937296		4.375459		-3.498462		-90.704438		20.685919		-24.439097		9.607907		-53.973472		-4.266477		-4.807750		-7.808624		5.479332		-4.132697		-10.287498		-32.563410		-10.854419		57.210315		96.994938		-20.263492		-2.571897		35.320545		-10.525239		-34.838929		-16.972422		63.585252		122.668073		-18.908710		8.657270		81.088187		
1.103409		-4.351133		15.209047		94.497046		0.002553		0.674176		0.475514		48.025601		-2.064762		-0.885223		-98.213353		18.685624		-7.766099		13.637845		45.618518		4.613717		-3.679034		-91.950443		20.392132		-24.849072		9.595239		-54.750238		-4.447024		-4.981468		-6.977705		5.600278		-4.357837		-7.590325		-32.747551		-10.190460		57.440821		97.938201		-20.645394		-2.497893		35.436031		-8.215873		-34.728925		-16.963291		64.196856		123.257156		-18.880751		9.212423		81.449445		
1.106136		-4.395865		15.425056		94.572257		0.002580		0.669629		0.474886		48.713484		-2.020534		-0.739603		-99.561936		18.104010		-7.594187		13.794530		46.103934		4.736186		-3.663003		-93.117683		20.318110		-24.916644		9.605361		-55.665983		-4.400187		-4.956025		-6.054896		5.702445		-4.557847		-4.993646		-32.968255		-9.679702		57.727136		98.211339		-20.635228		-2.496130		35.422176		-5.756879		-34.636823		-16.685556		64.709580		123.320356		-18.911314		9.187597		81.486824		
1.108864		-4.548185		15.593746		94.612546		0.002686		0.665092		0.474275		49.468753		-2.021232		-0.447234		-100.862999		17.089487		-7.576096		16.080768		46.618002		4.933510		-3.772773		-94.225380		19.979483		-25.434281		9.774807		-56.502876		-4.480045		-5.127637		-5.306190		5.759831		-4.749600		-2.183130		-33.225794		-8.698267		57.909985		98.821718		-21.012599		-2.611426		35.895336		-3.481434		-34.547206		-16.449067		65.317164		123.598787		-19.468525		9.686923		82.844612		
1.111591		-4.640014		15.738624		94.633889		0.002848		0.660706		0.473732		50.198988		-1.977249		-0.204502		-102.059505		16.226277		-7.531903		17.928642		47.127054		5.084386		-3.835251		-95.270157		19.706034		-25.873764		9.912690		-57.314725		-4.522909		-5.205529		-4.519812		5.824701		-4.876112		0.582056		-33.454915		-7.806876		58.134694		99.322315		-21.321680		-2.708239		36.258466		-1.126623		-34.429923		-16.118361		65.901091		123.768144		-19.941017		10.020405		83.916969		
